<?xml version="1.0" encoding="utf-8"?>
<!-- Generator: Adobe Illustrator 27.2.0, SVG Export Plug-In . SVG Version: 6.00 Build 0)  -->
<!-- viewBox cropped from 0 0 1920 1080 to a tight bounding box around the wordmark
     so the SVG scales to fill its container at any header height. -->
<svg version="1.1" id="Layer_1" xmlns="http://www.w3.org/2000/svg" xmlns:xlink="http://www.w3.org/1999/xlink" x="0px" y="0px"
         viewBox="659 459 604 161" style="enable-background:new 0 0 1920 1080;" xml:space="preserve">
<style type="text/css">
        .st0{fill:#2563EB;}
</style>
<g>
        <path class="st0" d="M674.02,547.74v-29.55H659v-19.81h15.02v-20.8h23.44v20.8h28.89v19.81h-28.89v28.89
                c0,9.08,5.45,14.36,14.03,14.36c4.79,0,10.89-1.48,14.86-3.96v20.97c-4.13,2.64-11.22,3.96-17,3.96
                C685.74,582.41,674.02,568.21,674.02,547.74z"/>
        <path class="st0" d="M794.35,536.19v-37.8h23.44v40.61c0,23.94-14.2,43.25-41.6,43.25c-27.24,0-41.44-19.31-41.44-43.25v-40.61
                h23.44v37.97c0,12.55,5.94,23.28,17.99,23.28C788.24,559.63,794.35,548.9,794.35,536.19z"/>
        <path class="st0" d="M969.87,537.34v42.76h-23.44V541.3c0-12.54-5.45-23.11-18.32-23.11c-12.71,0-18.16,10.4-18.16,22.78v39.12
                h-23.44v-38.96c0-12.55-5.45-22.95-18.16-22.95c-13.04,0-18.16,10.57-18.16,22.95v38.96h-23.44v-42.76
                c0-22.78,13.37-41.93,39.78-41.93c15.68,0,27.07,6.94,31.86,18.16c5.12-11.22,16.67-18.16,31.37-18.16
                C956.34,495.41,969.87,514.56,969.87,537.34z"/>
        <path class="st0" d="M975.7,538.99c0-23.44,19.15-43.09,44.24-43.09c25.59,0,44.41,18.49,44.41,43.09v41.11h-22.29v-9.57
                c-5.78,7.26-14.69,11.72-25.92,11.72C992.37,582.24,975.7,562.76,975.7,538.99z M1040.9,539.16c0-11.56-8.91-21.13-20.97-21.13
                c-12.05,0-20.8,9.57-20.8,21.13s8.75,21.13,20.8,21.13C1031.99,560.29,1040.9,550.72,1040.9,539.16z"/>
        <path class="st0" d="M1175.52,596.61l19.31-10.57c3.63,7.1,10.9,12.54,21.46,12.54c14.03,0,22.12-10.24,22.12-25.42v-2.31
                c-4.46,6.6-11.72,10.24-21.79,10.24c-26.58,0-38.13-17-38.13-41.27v-41.43h23.11v40.61c0,11.89,6.44,19.98,17.99,19.98
                c10.57,0,18.49-8.75,18.49-20.47v-40.11h23.77v74.45c0,28.56-18.32,47.21-45.23,47.21
                C1197.15,620.05,1182.95,611.79,1175.52,596.61z"/>
        <path class="st0" d="M1121.67,459.1c-23.94,0-38.63,17.33-38.63,37.8v1.49h-14.53v19.64h14.53v62.07h23.44v-62.07h19.81v-19.64
                h-19.81h-2.28c-1.63,0-3.08-1.05-3.59-2.59l-6.73-20.39c-0.41-1.25,0.52-2.53,1.83-2.53h5.33c1.94,0,3.79,0.82,5.1,2.25l6.65,7.28
                l0.99,1.08c1.51,1.65,3.64,2.59,5.87,2.59h18.43h2.43v94.02h23.26v-86.75C1163.76,479.77,1156.05,459.1,1121.67,459.1z"/>
</g>
</svg>
